<svg width="504" height="577" viewBox="0 0 504 577" fill="none" xmlns="http://www.w3.org/2000/svg">
<path d="M174.583 289.461C171.817 289.276 169.051 290.552 167.195 292.607C164.954 291.147 161.883 291.077 159.578 292.432C157.272 293.788 155.841 296.504 156.026 299.175C154.736 299.38 153.56 300.135 152.755 301.165C151.255 303.086 151.16 306.042 152.68 307.948C154.201 309.853 157.257 310.379 159.232 308.948C160.963 310.854 163.399 312.104 165.96 312.394C168.521 312.679 171.172 312.004 173.282 310.529C174.763 312.339 177.229 313.285 179.54 312.929C181.85 312.574 183.921 310.939 184.796 308.768C185.131 307.938 185.297 307.017 185.116 306.137C184.936 305.257 184.371 304.437 183.546 304.081C185.196 303.026 186.667 301.586 187.377 299.765C188.088 297.944 187.922 295.703 186.637 294.233C185.892 293.378 184.746 292.877 183.616 292.862C182.671 292.852 181.6 293.613 180.74 293.118C179.81 292.582 179.204 291.267 178.209 290.647C177.124 289.966 175.868 289.546 174.583 289.461Z" fill="white"/>
<path d="M315.187 321.077C312.421 320.892 309.655 322.168 307.799 324.223C305.559 322.763 302.488 322.693 300.182 324.048C297.876 325.404 296.445 328.12 296.63 330.791C295.34 330.996 294.165 331.751 293.359 332.781C291.859 334.702 291.764 337.658 293.284 339.564C294.805 341.469 297.861 341.995 299.837 340.564C301.567 342.47 304.003 343.72 306.564 344.01C309.125 344.3 311.776 343.62 313.887 342.145C315.367 343.955 317.833 344.901 320.144 344.546C322.455 344.19 324.525 342.555 325.401 340.384C325.736 339.554 325.901 338.633 325.721 337.753C325.541 336.878 324.975 336.053 324.15 335.697C325.801 334.642 327.271 333.202 327.981 331.381C328.692 329.56 328.527 327.32 327.241 325.849C326.496 324.994 325.351 324.494 324.22 324.479C323.275 324.469 322.204 325.229 321.344 324.734C320.414 324.198 319.809 322.883 318.813 322.263C317.723 321.578 316.467 321.162 315.187 321.077Z" fill="white"/>
<path d="M393.004 336.868V352.678C393.004 354.194 391.774 355.419 390.263 355.419H343.002C341.486 355.419 340.261 354.189 340.261 352.678V289.446C340.261 287.926 341.491 286.705 343.002 286.705H390.263C391.779 286.705 393.004 287.926 393.004 289.446V305.257C393.004 306.772 391.774 307.998 390.263 307.998H369.371V312.389H382.39C383.906 312.389 385.131 313.62 385.131 315.13V326.984C385.131 328.505 383.901 329.725 382.39 329.725H369.371V334.122H390.263C391.779 334.127 393.004 335.352 393.004 336.868Z" fill="#3D195B"/>
<path d="M308.225 287.426C318.718 290.096 326.046 299.535 326.046 310.374C326.046 321.212 318.718 330.651 308.225 333.327C306.324 333.807 304.353 334.052 302.372 334.052C301.902 334.052 301.502 334.042 301.117 334.027H290.598V352.678C290.598 354.194 289.368 355.419 287.857 355.419H264.224C262.709 355.419 261.483 354.189 261.483 352.678V289.441C261.483 287.926 262.714 286.7 264.224 286.7H302.372C304.353 286.7 306.324 286.945 308.225 287.426Z" fill="#3D195B"/>
<path d="M251.035 351.718C251.345 352.558 251.23 353.499 250.724 354.239C250.209 354.979 249.369 355.419 248.469 355.419H185.447C184.546 355.419 183.706 354.979 183.191 354.239C182.681 353.499 182.561 352.553 182.881 351.718L206.514 288.486C206.914 287.411 207.939 286.705 209.08 286.705H224.83C225.976 286.705 227.001 287.411 227.401 288.486L251.035 351.718Z" fill="#3D195B"/>
<path d="M172.437 289.447V352.679C172.437 354.194 171.207 355.42 169.696 355.42H153.941C152.425 355.42 151.2 354.189 151.2 352.679V321.513L140.321 334.948C139.801 335.588 139.015 335.968 138.19 335.968C137.365 335.968 136.584 335.588 136.064 334.948L125.181 321.513V352.679C125.181 354.194 123.95 355.42 122.44 355.42H106.679C105.164 355.42 103.938 354.189 103.938 352.679V289.447C103.938 287.926 105.169 286.706 106.679 286.706H169.701C171.207 286.706 172.437 287.926 172.437 289.447Z" fill="#3D195B"/>
<path d="M185.447 352.673L209.08 289.441H224.83L248.469 352.673H185.447Z" fill="#A438A8"/>
<path d="M169.696 352.673H153.941V313.765L138.185 333.217L122.43 313.765V352.673H106.674V289.441H169.696V352.673Z" fill="#A438A8"/>
<path d="M302.372 289.441C304.158 289.441 305.894 289.661 307.549 290.081C316.602 292.387 323.305 300.6 323.305 310.374C323.305 320.152 316.597 328.365 307.549 330.671C305.894 331.091 304.158 331.311 302.372 331.311C301.977 331.311 301.587 331.301 301.197 331.281H287.857V352.673H264.224V289.441H302.372Z" fill="#A438A8"/>
<path d="M382.385 315.13V326.984H366.63V336.863H390.263V352.673H343.002V289.441H390.263V305.252H366.63V315.13H382.385Z" fill="#A438A8"/>
<path d="M295.96 370.51C294.38 369.724 293.494 368.364 293.299 366.433C293.199 365.413 293.294 364.613 293.594 364.042C293.895 363.467 294.385 363.147 295.075 363.077C295.575 363.027 295.995 363.117 296.34 363.342C296.68 363.572 296.871 363.887 296.916 364.297C296.956 364.668 296.956 364.998 296.931 365.283C296.941 365.358 296.936 365.488 296.931 365.678C296.921 365.863 296.926 366.063 296.946 366.268C297.031 367.103 297.516 367.684 298.401 368.004C299.286 368.329 300.492 368.414 302.012 368.259C303.588 368.099 304.793 367.694 305.629 367.038C306.464 366.383 306.829 365.543 306.724 364.523C306.659 363.892 306.404 363.367 305.949 362.957C305.494 362.542 304.948 362.217 304.303 361.972C303.658 361.727 302.758 361.436 301.602 361.106C300.117 360.691 298.901 360.281 297.951 359.871C297.001 359.461 296.16 358.856 295.435 358.055C294.71 357.255 294.28 356.22 294.155 354.939C294.02 353.604 294.26 352.378 294.87 351.268C295.48 350.158 296.43 349.247 297.716 348.537C299.001 347.827 300.557 347.382 302.372 347.196C303.728 347.061 304.993 347.136 306.164 347.422C307.334 347.707 308.3 348.222 309.06 348.972C309.82 349.722 310.26 350.688 310.375 351.878C310.49 353.048 310.405 353.944 310.115 354.574C309.82 355.204 309.33 355.554 308.645 355.624C308.16 355.674 307.744 355.564 307.389 355.299C307.034 355.034 306.839 354.699 306.794 354.289C306.759 353.934 306.754 353.609 306.779 353.304C306.779 352.743 306.769 352.388 306.754 352.238C306.679 351.458 306.239 350.903 305.434 350.573C304.633 350.243 303.663 350.132 302.533 350.243C300.937 350.403 299.747 350.818 298.961 351.488C298.176 352.158 297.836 353.024 297.941 354.079C298.011 354.784 298.291 355.364 298.776 355.819C299.261 356.275 299.847 356.64 300.532 356.91C301.212 357.18 302.162 357.485 303.378 357.835C304.843 358.265 306.029 358.675 306.929 359.051C307.829 359.431 308.62 359.986 309.305 360.721C309.99 361.461 310.39 362.412 310.505 363.582C310.725 365.773 310.065 367.539 308.52 368.884C306.979 370.23 304.813 371.04 302.032 371.32C299.561 371.57 297.541 371.3 295.96 370.51Z" fill="white"/>
<path d="M391.534 350.983C391.489 350.573 391.369 350.313 391.159 350.203C390.948 350.082 390.608 350.037 390.143 350.092C389.683 350.137 389.273 350.213 388.933 350.323C388.803 349.927 388.658 349.652 388.503 349.507C388.338 349.362 388.062 349.307 387.652 349.352C386.377 349.482 385.196 350.002 384.136 350.928C383.081 351.853 382.275 353.008 381.71 354.399C381.18 355.744 380.97 357.13 381.095 358.55C380.765 358.991 380.48 359.346 380.225 359.606C379.765 360.111 379.344 360.386 378.979 360.421C378.439 360.476 378.129 360.136 378.054 359.396C377.999 358.881 378.074 357.785 378.264 356.135C378.484 354.209 378.549 352.873 378.484 352.148C378.364 350.948 377.704 350.408 376.488 350.528C375.883 350.583 375.223 350.868 374.538 351.363C373.842 351.858 373.172 352.653 372.512 353.734C371.852 354.814 371.292 356.18 370.836 357.83C370.836 357.015 370.856 356.31 370.911 355.749C370.966 355.174 371.042 354.514 371.167 353.754C371.332 352.683 371.407 352.003 371.377 351.703C371.357 351.448 371.267 351.273 371.102 351.198C370.946 351.123 370.681 351.098 370.306 351.143C369.621 351.208 369.106 351.388 368.741 351.673C368.386 351.968 368.156 352.388 368.045 352.938C367.605 355.019 367.485 357.18 367.66 359.406C367.185 360.076 366.79 360.606 366.46 360.971C366.01 361.491 365.61 361.767 365.269 361.797C364.929 361.832 364.654 361.707 364.474 361.421C364.299 361.146 364.179 360.726 364.124 360.166C364.059 359.441 364.134 358.04 364.379 355.96C364.564 354.229 364.634 353.139 364.589 352.678C364.524 352.038 364.014 351.773 363.069 351.873C362.464 351.928 362.023 352.083 361.768 352.333C361.513 352.588 361.328 353.013 361.228 353.624C361.008 354.789 360.853 356.035 360.768 357.37C360.703 358.485 360.693 359.421 360.748 360.191C360.263 360.851 359.858 361.356 359.512 361.702C359.017 362.207 358.477 362.482 357.902 362.537C357.362 362.592 356.887 362.482 356.481 362.217C356.061 361.952 355.796 361.566 355.676 361.071C356.867 360.276 357.682 359.431 358.122 358.525C358.552 357.61 358.717 356.655 358.617 355.629C358.517 354.704 358.167 353.954 357.527 353.384C356.897 352.808 356.126 352.568 355.191 352.658C354.191 352.768 353.165 353.399 352.13 354.564C351.085 355.719 350.224 357.505 349.574 359.916C349.464 358.891 349.399 357.9 349.354 356.93C351.56 353.989 353.1 351.453 353.991 349.337C354.881 347.211 355.236 345.216 355.046 343.335C354.926 342.17 354.571 341.254 353.966 340.569C353.36 339.884 352.63 339.589 351.785 339.679C350.189 339.834 348.919 341.024 347.993 343.25C347.058 345.476 346.463 348.162 346.188 351.313C345.978 353.749 345.933 356.095 346.058 358.35C345.288 358.59 344.592 358.771 343.987 358.866C343.692 357.455 343.062 356.31 342.101 355.419C341.141 354.529 339.956 354.164 338.545 354.294C337.4 354.414 336.374 354.834 335.494 355.549C334.614 356.265 333.954 357.2 333.533 358.36C333.103 359.516 332.958 360.806 333.103 362.217C333.138 362.592 333.203 362.957 333.303 363.307C332.963 363.767 332.663 364.132 332.413 364.407C331.948 364.913 331.533 365.178 331.158 365.223C330.617 365.268 330.307 364.928 330.242 364.187C330.187 363.672 330.252 362.577 330.442 360.926C330.662 359.001 330.737 357.665 330.662 356.95C330.542 355.739 329.882 355.199 328.682 355.319C327.691 355.419 326.686 356.045 325.661 357.19C324.625 358.345 323.765 360.111 323.07 362.487C323.09 362.147 323.135 361.626 323.225 360.946C323.425 359.361 323.49 358.27 323.425 357.675C323.37 357.06 323.185 356.62 322.885 356.34C322.59 356.075 322.114 355.975 321.464 356.04C320.814 356.095 320.154 356.415 319.468 356.975C318.783 357.55 318.148 358.365 317.553 359.431C316.948 360.511 316.472 361.787 316.122 363.287C316.112 362.462 316.142 361.777 316.197 361.216C316.252 360.656 316.327 359.996 316.442 359.236C316.617 358.165 316.698 357.485 316.662 357.195C316.642 356.93 316.542 356.765 316.387 356.69C316.232 356.6 315.967 356.59 315.592 356.625C314.907 356.69 314.382 356.865 314.027 357.165C313.676 357.45 313.441 357.87 313.321 358.43C312.861 360.666 312.746 362.992 312.991 365.403C313.156 367.033 313.411 368.214 313.771 368.929C314.137 369.634 314.662 369.954 315.367 369.889C315.952 369.834 316.357 369.634 316.592 369.304C316.833 368.974 317.013 368.359 317.133 367.464C317.263 366.438 317.488 365.383 317.783 364.302C318.078 363.222 318.398 362.332 318.763 361.617C319.128 360.911 319.448 360.536 319.724 360.516C319.924 360.496 320.044 360.636 320.074 360.936C320.109 361.301 320.109 362.092 320.084 363.292C320.029 364.648 320.039 365.673 320.104 366.378C320.194 367.213 320.414 367.909 320.774 368.459C321.149 369.019 321.634 369.264 322.249 369.199C322.835 369.144 323.25 368.954 323.495 368.624C323.735 368.304 323.915 367.689 324.025 366.773C324.19 365.618 324.445 364.502 324.785 363.437C325.125 362.367 325.491 361.511 325.876 360.836C326.261 360.176 326.571 359.821 326.811 359.801C327.021 359.781 327.131 359.921 327.166 360.221C327.211 360.661 327.166 361.486 327.046 362.677C326.926 364.042 326.881 364.978 326.936 365.498C327.046 366.543 327.366 367.303 327.906 367.814C328.437 368.309 329.182 368.509 330.132 368.419C331.298 368.299 332.313 367.879 333.163 367.153C333.648 366.748 334.099 366.293 334.529 365.778C334.939 366.283 335.434 366.693 336.014 367.013C336.865 367.474 337.83 367.654 338.955 367.534C340.266 367.404 341.401 366.818 342.346 365.783C343.282 364.738 343.857 363.412 344.052 361.827C344.857 361.717 345.608 361.541 346.313 361.296C346.443 362.517 346.588 363.477 346.733 364.172C346.918 365.033 347.163 365.658 347.473 366.043C347.783 366.438 348.234 366.603 348.809 366.548C349.384 366.483 349.789 366.293 350.034 365.953C350.264 365.623 350.439 365.018 350.564 364.112C350.739 362.877 351.025 361.667 351.435 360.476C351.845 359.276 352.305 358.295 352.845 357.5C353.375 356.72 353.881 356.31 354.386 356.255C354.586 356.235 354.771 356.3 354.926 356.455C355.081 356.61 355.181 356.85 355.211 357.18C355.266 357.755 355.136 358.26 354.826 358.7C354.516 359.131 353.966 359.571 353.185 360.001C352.48 360.386 352.16 360.946 352.225 361.677C352.37 363.032 352.91 364.067 353.866 364.793C354.811 365.533 356.001 365.818 357.437 365.673C358.602 365.553 359.583 365.143 360.378 364.452C360.763 364.112 361.148 363.727 361.513 363.287C361.643 363.517 361.788 363.737 361.943 363.937C362.574 364.733 363.499 365.073 364.709 364.953C365.875 364.833 367.045 364.102 368.226 362.762C368.316 363.027 368.401 363.257 368.501 363.447C368.866 364.162 369.406 364.482 370.111 364.417C370.686 364.362 371.092 364.162 371.322 363.832C371.562 363.492 371.742 362.887 371.862 361.992C372.027 360.826 372.282 359.711 372.632 358.655C372.982 357.585 373.347 356.715 373.722 356.055C374.098 355.394 374.408 355.039 374.648 355.019C374.848 354.999 374.968 355.139 375.003 355.439C375.048 355.879 375.003 356.695 374.883 357.895C374.753 359.251 374.718 360.196 374.773 360.716C374.873 361.752 375.193 362.522 375.733 363.017C376.273 363.522 377.014 363.722 377.959 363.622C379.124 363.512 380.14 363.092 381 362.367C381.355 362.057 381.695 361.727 382.035 361.366C382.165 361.566 382.32 361.742 382.486 361.907C383.256 362.677 384.216 362.997 385.362 362.887C385.867 362.832 386.352 362.657 386.837 362.337C387.322 362.017 387.697 361.586 387.962 361.046L387.907 362.147C385.276 364.648 383.511 366.698 382.621 368.314C381.73 369.934 381.355 371.4 381.485 372.72C381.585 373.666 381.96 374.396 382.611 374.926C383.261 375.456 384.066 375.666 385.011 375.576C387.017 375.366 388.473 373.826 389.398 370.925C390.313 368.029 390.883 364.162 391.104 359.301C391.124 358.771 391.204 357.68 391.314 356.04C391.469 353.604 391.544 352.108 391.569 351.523C391.559 351.393 391.559 351.213 391.534 350.983ZM340.351 363.687C339.966 364.217 339.48 364.503 338.885 364.558C338.345 364.613 337.85 364.392 337.4 363.897C336.95 363.402 336.675 362.642 336.564 361.617C336.434 360.316 336.584 359.291 337.005 358.52C337.425 357.76 338.005 357.34 338.745 357.265L338.89 357.255C338.855 357.55 338.87 357.86 338.89 358.16C338.965 358.866 339.185 359.516 339.55 360.111C339.926 360.716 340.411 361.181 341.026 361.511C340.971 362.427 340.751 363.157 340.351 363.687ZM349.729 348.032C349.939 346.366 350.204 345.036 350.524 344.045C350.834 343.045 351.165 342.525 351.495 342.495C351.735 342.475 351.935 342.615 352.1 342.915C352.255 343.225 352.365 343.665 352.43 344.26C352.56 345.561 352.33 347.046 351.735 348.722C351.14 350.388 350.334 351.963 349.324 353.429C349.374 351.488 349.509 349.682 349.729 348.032ZM386.437 371.01C385.977 372.175 385.502 372.795 385.036 372.84C384.761 372.86 384.551 372.785 384.406 372.585C384.261 372.4 384.176 372.145 384.141 371.825C384.076 371.085 384.296 370.195 384.836 369.149C385.367 368.104 386.282 366.893 387.592 365.523C387.292 368.004 386.907 369.834 386.437 371.01ZM387.832 356.755C387.767 357.735 387.557 358.505 387.227 359.071C386.887 359.621 386.502 359.931 386.082 359.976C385.662 360.011 385.332 359.911 385.081 359.656C384.816 359.391 384.661 358.986 384.596 358.4C384.496 357.365 384.596 356.365 384.891 355.394C385.176 354.434 385.632 353.634 386.227 353.003C386.812 352.363 387.492 352.003 388.253 351.913L387.832 356.755Z" fill="white"/>
<path d="M365.835 347.292C365.77 346.686 365.505 346.236 365.054 345.936C364.594 345.651 364.019 345.541 363.324 345.606C362.564 345.681 361.958 345.956 361.483 346.451C361.023 346.936 360.823 347.497 360.888 348.147C360.953 348.797 361.198 349.292 361.628 349.612C362.048 349.932 362.654 350.052 363.434 349.977C364.229 349.902 364.844 349.612 365.285 349.127C365.725 348.647 365.9 348.042 365.835 347.292Z" fill="white"/>
<path d="M260.578 279.158C257.812 278.973 255.046 280.248 253.19 282.304C250.95 280.843 247.878 280.773 245.573 282.129C243.267 283.484 241.836 286.2 242.021 288.871C240.731 289.076 239.556 289.831 238.75 290.862C237.25 292.782 237.155 295.738 238.675 297.644C240.196 299.55 243.252 300.075 245.227 298.644C246.958 300.55 249.394 301.801 251.955 302.091C254.516 302.376 257.167 301.701 259.277 300.225C260.758 302.036 263.224 302.981 265.535 302.626C267.845 302.271 269.916 300.635 270.791 298.464C271.127 297.634 271.292 296.714 271.112 295.833C270.931 294.953 270.366 294.133 269.541 293.778C271.192 292.722 272.662 291.282 273.372 289.461C274.083 287.641 273.918 285.4 272.632 283.929C271.887 283.074 270.741 282.574 269.611 282.559C268.666 282.549 267.595 283.309 266.735 282.814C265.805 282.279 265.199 280.963 264.204 280.343C263.119 279.658 261.863 279.243 260.578 279.158Z" fill="white"/>
<path d="M390.788 272.915C388.022 272.73 385.256 274.006 383.401 276.062C381.16 274.601 378.089 274.531 375.783 275.887C373.477 277.242 372.047 279.958 372.232 282.629C370.941 282.834 369.766 283.589 368.961 284.62C367.46 286.54 367.365 289.496 368.886 291.402C370.406 293.308 373.462 293.833 375.438 292.402C377.169 294.308 379.604 295.558 382.165 295.849C384.726 296.134 387.377 295.458 389.488 293.983C390.968 295.793 393.434 296.739 395.745 296.384C398.056 296.029 400.127 294.393 401.002 292.222C401.337 291.392 401.502 290.472 401.322 289.591C401.142 288.716 400.577 287.891 399.752 287.536C401.402 286.48 402.873 285.04 403.583 283.219C404.293 281.398 404.128 279.158 402.843 277.687C402.097 276.832 400.952 276.332 399.822 276.317C398.876 276.307 397.806 277.067 396.946 276.572C396.015 276.037 395.41 274.721 394.415 274.101C393.324 273.416 392.069 273 390.788 272.915Z" fill="white"/>
<path d="M341.411 247.492C341.411 247.502 341.411 247.507 341.401 247.517V247.527L341.376 247.682C340.296 253.209 336.87 258.19 332.208 261.016L331.093 261.697L330.352 262.762C328.567 265.343 325.671 266.648 321.734 266.648C321.309 266.648 320.934 266.638 320.629 266.633H320.374L320.174 266.623L319.974 266.633C317.883 266.718 315.762 266.913 313.481 267.223C311.031 267.564 308.565 267.999 306.154 268.514L302.197 269.349L301.432 273.331C300.507 278.157 299.507 283.059 298.451 287.886C297.616 291.792 294.095 294.613 290.093 294.613H290.078L289.948 294.603H289.728C278.729 294.123 267.365 290.352 256.872 283.689C248.479 278.347 240.366 271.4 232.048 262.457C228.036 258.14 224.17 253.654 220.429 249.312L220.229 249.077C215.372 243.43 210.345 237.583 205.098 232.266L205.013 232.181L204.928 232.096C195.165 222.978 188.598 218.481 188.318 218.291L188.233 218.231L188.138 218.181C181.215 213.84 174.108 211.129 166.975 210.128L166.93 210.118L166.705 210.073C163.169 209.508 159.463 209.143 155.871 208.783L155.791 208.773C149.279 208.118 142.562 207.448 135.774 205.617C135.669 205.592 135.554 205.567 135.454 205.537C129.257 203.786 123.795 201.145 119.208 197.674L118.763 197.334C116.462 195.538 114.337 193.528 112.391 191.302C110.44 189.081 108.68 186.655 107.109 184.034C100.827 173.611 98.5612 160.826 100.902 148.972C102.708 139.979 103.498 130.896 104.338 121.272L104.353 121.097C105.399 108.913 106.489 96.3287 109.825 83.7943C111.296 78.1623 113.466 72.5054 116.282 66.9634C119.038 61.5065 122.435 56.5548 125.706 52.0232L125.861 51.8131V51.8031C132.753 42.4799 140.806 34.0869 149.839 26.8244C154.256 23.2231 159.032 19.8419 164.044 16.7659L164.069 16.7509L164.084 16.7409C168.896 13.7248 174.083 11.0038 179.495 8.63802L179.555 8.61301L179.605 8.588C190.823 3.4262 202.873 0.480168 214.482 0.0800279C215.677 0.0300104 216.888 0 218.088 0C229.077 0 239.801 1.95068 249.924 5.79703L249.994 5.82204L250.054 5.83704C260.373 9.50832 270.066 16.5808 279.685 27.4846L279.805 27.6247L279.815 27.6347C286.632 35.5124 294.275 45.1008 299.451 56.4998L299.467 56.5348L299.482 56.5798C304.048 66.2782 307.344 77.182 309.54 89.8914L309.555 89.9715C312.491 107.333 313.076 124.318 313.261 137.173L313.341 143.18L319.348 143.19C321.484 143.2 323.49 143.65 325.311 144.526C330.112 146.836 335.419 152.473 333.483 166.263C332.288 174.741 328.997 182.764 327.626 185.83C325.411 190.807 322.64 195.523 319.373 199.86C316.042 204.281 319.849 210.499 325.301 209.543C325.746 209.463 326.196 209.423 326.651 209.423C327.521 209.423 328.392 209.578 329.242 209.868C330.087 210.159 330.862 210.584 331.543 211.114C334.104 213.13 335.179 216.526 334.254 219.637C334.204 219.767 334.159 219.907 334.124 220.047C333.558 221.833 333.478 223.653 333.864 225.614L333.889 225.764L333.899 225.779C333.924 225.894 333.944 225.999 333.979 226.109C334.189 226.969 334.589 227.77 335.144 228.46C335.364 228.74 335.634 229.05 335.869 229.325L336.024 229.515C336.424 229.975 336.825 230.456 337.235 230.986L337.26 231.021L337.295 231.056C340.896 235.567 342.432 241.705 341.411 247.492Z" fill="white"/>
<path d="M302.267 88.8761C300.402 78.1023 297.491 67.4036 292.794 57.4301C288.218 47.3265 281.395 38.5285 274.248 30.2706C267.04 22.1027 258.317 14.4951 247.728 10.7738C237.375 6.82738 226.226 5.06676 215.187 5.51192C204.138 5.88705 193.164 8.76305 183.211 13.3747C178.184 15.5704 173.292 18.1163 168.631 21.0373C163.949 23.9134 159.453 27.0795 155.201 30.5457C146.653 37.4231 139 45.4059 132.508 54.224C129.302 58.6705 126.206 63.1821 123.725 68.1088C121.239 73.0005 119.228 78.1423 117.843 83.4292C112.176 104.667 113.321 126.769 109.03 148.122C107.049 158.125 108.985 168.854 114.267 177.607C116.888 181.989 120.299 185.92 124.375 189.031C128.472 192.132 133.248 194.258 138.18 195.628C148.114 198.319 158.442 198.329 168.386 199.935C177.119 201.145 185.322 204.486 192.729 209.128C192.519 208.298 192.414 207.453 192.414 206.602V206.592C185.111 202.356 176.989 199.43 168.621 198.424C158.477 197.004 148.234 197.194 138.415 194.728C133.543 193.483 128.827 191.497 124.75 188.521C120.664 185.565 117.288 181.664 114.667 177.357C109.375 168.744 107.379 158.12 109.28 148.167C113.732 126.824 112.716 104.607 118.858 83.7093C120.324 78.4974 122.425 73.4957 124.925 68.729C127.436 63.9724 130.592 59.5158 133.814 55.2043C140.366 46.6113 148.039 38.8736 156.562 32.2563C165.049 25.5989 174.413 20.082 184.261 15.7405C194.075 11.2239 204.558 8.52297 215.297 8.15784C225.991 7.7477 236.77 9.48331 246.758 13.3196C256.887 16.8409 265.185 23.9634 272.347 31.9712C279.439 40.094 286.172 48.662 290.638 58.4404C295.26 68.1588 298.266 78.6175 300.232 89.2412C303.743 108.598 304.353 128.415 304.563 148.157C305.018 147.807 305.479 147.467 305.949 147.146C305.919 127.705 305.534 108.183 302.267 88.8761Z" fill="#A438A8"/>
<path d="M302.478 212.864C302.252 215.025 302.007 217.181 301.747 219.342C299.386 240.989 295.845 262.517 291.229 283.819C291.159 284.159 290.838 284.384 290.503 284.379C280.15 283.924 270.171 280.178 261.518 274.686C252.835 269.154 245.177 262.207 238.23 254.729C228.957 244.761 220.574 233.942 211.106 224.363C212.751 225.094 214.437 225.769 216.162 226.359C217.383 227.65 218.593 228.95 219.789 230.266C226.641 237.838 232.933 245.851 239.816 253.249C246.683 260.646 254.091 267.604 262.504 273.146C270.711 278.542 280.135 282.269 289.968 282.914C294.71 261.902 298.501 240.659 300.957 219.257C301.167 217.341 301.377 215.43 301.567 213.515C301.882 213.3 302.187 213.08 302.478 212.864Z" fill="#A438A8"/>
<path d="M290.638 58.4405C286.157 48.642 279.449 40.084 272.327 31.9712C265.169 23.9634 256.882 16.8409 246.748 13.3197C236.76 9.48333 225.971 7.73272 215.292 8.15286C204.538 8.52799 194.06 11.2289 184.241 15.7505C174.418 20.067 165.039 25.609 156.541 32.2513C148.018 38.8586 140.356 46.5963 133.814 55.1893C130.562 59.5308 127.416 63.9824 124.915 68.7441C122.415 73.5007 120.329 78.5075 118.858 83.7093C112.696 104.627 113.726 126.844 109.27 148.167C107.389 158.13 109.375 168.744 114.647 177.362C117.278 181.679 120.634 185.58 124.74 188.526C128.817 191.507 133.543 193.483 138.405 194.723C144.942 196.364 151.655 196.839 158.422 197.389C161.263 189.486 164.209 181.579 167.33 173.771C170.686 165.903 174.278 158.09 178.214 150.458C186.117 135.152 195.775 120.677 207.409 107.768C213.336 101.395 219.874 95.5484 226.921 90.4066C234.009 85.3449 241.441 80.7233 249.754 77.6022C258.042 74.5261 266.905 72.8805 275.743 73.4607C283.751 74.0809 291.589 76.5818 298.366 80.6882C296.53 73.0256 294.03 65.5279 290.638 58.4405ZM153.215 185.655C145.197 186.52 136.655 185.54 129.642 181.228C126.181 179.048 123.27 176.027 121.259 172.48C119.243 168.944 118.163 164.813 118.558 160.741C118.558 160.696 118.603 160.661 118.653 160.661C118.698 160.671 118.723 160.711 118.733 160.756C118.958 164.828 120.309 168.589 122.41 171.815C124.52 175.031 127.256 177.857 130.547 179.773C133.743 181.909 137.47 183.179 141.286 184.079C145.122 184.97 149.119 185.31 153.2 185.49C153.25 185.48 153.295 185.515 153.295 185.56C153.3 185.6 153.26 185.645 153.215 185.655ZM161.608 169.554C152.11 169.649 142.687 164.943 137.065 157.285C137.04 157.25 137.05 157.2 137.08 157.165C137.105 157.15 137.15 157.15 137.185 157.175L137.2 157.185C139.09 158.701 140.886 160.146 142.787 161.411C144.677 162.677 146.568 163.912 148.634 164.818C150.604 165.933 152.73 166.693 154.876 167.459C157.027 168.224 159.257 168.794 161.603 169.394H161.628C161.673 169.409 161.698 169.454 161.688 169.499C161.688 169.539 161.653 169.554 161.608 169.554ZM168.676 147.287C168.651 147.312 168.606 147.322 168.571 147.302C161.038 143.8 153.791 139.684 146.923 135.002C146.878 134.977 146.873 134.922 146.898 134.882C146.923 134.857 146.958 134.837 146.993 134.857H147.018C149.074 135.502 150.965 136.383 152.85 137.263C154.726 138.143 156.491 139.199 158.342 140.124C160.068 141.249 161.888 142.205 163.604 143.375C165.32 144.536 167.04 145.711 168.651 147.146L168.666 147.162C168.701 147.192 168.701 147.252 168.676 147.287ZM180.25 123.223C180.225 123.258 180.18 123.268 180.145 123.248C170.756 118.612 161.858 112.965 153.675 106.437C153.64 106.402 153.63 106.352 153.66 106.317C153.685 106.292 153.73 106.282 153.765 106.292L153.781 106.302C156.211 107.438 158.462 108.768 160.718 110.069L167.37 114.13L173.863 118.426C176.008 119.907 178.169 121.387 180.225 123.098L180.24 123.113C180.275 123.138 180.285 123.188 180.25 123.223ZM197.116 107.658C197.091 107.693 197.031 107.693 196.996 107.683C187.357 100.86 177.779 93.9629 168.261 86.9904C168.216 86.9654 168.211 86.9104 168.236 86.8754C168.261 86.8404 168.321 86.8304 168.356 86.8504C171.102 88.0858 173.662 89.5763 176.188 91.1119C178.724 92.6524 181.115 94.378 183.571 96.0186C185.897 97.8392 188.303 99.5398 190.558 101.466C192.814 103.376 195.045 105.327 197.086 107.538C197.131 107.573 197.141 107.623 197.116 107.658ZM207.914 84.3645C207.889 84.3995 207.829 84.3895 207.794 84.3795C198.581 77.4421 189.433 70.4246 180.33 63.3422C180.295 63.3072 180.285 63.2571 180.315 63.2221C180.34 63.1871 180.4 63.1871 180.435 63.2071C183.091 64.4776 185.552 66.0131 187.982 67.5837C190.413 69.1542 192.689 70.9148 195.05 72.5754C197.266 74.4211 199.567 76.1567 201.707 78.1023C203.853 80.038 205.969 82.0137 207.894 84.2445C207.929 84.2645 207.939 84.3195 207.914 84.3645ZM227.251 75.5865C227.206 75.5865 227.171 75.5614 227.166 75.5364C224.205 68.1088 218.318 61.9167 211.051 58.5855C211.006 58.5605 210.991 58.5155 211.016 58.4705C211.026 58.4355 211.061 58.4204 211.101 58.4204L211.116 58.4305C213.206 58.6905 215.162 59.4858 216.988 60.5062C218.828 61.5265 220.414 62.922 221.944 64.3575C223.295 65.9631 224.62 67.6187 225.536 69.4993C226.461 71.38 227.146 73.3757 227.311 75.4764L227.321 75.4914C227.331 75.5414 227.296 75.5765 227.251 75.5865ZM256.276 68.0388C256.231 68.0488 256.191 68.0238 256.161 67.9788C251.9 55.4294 240.481 45.641 227.426 43.3402C227.381 43.3302 227.346 43.2902 227.356 43.2451C227.366 43.2001 227.416 43.1751 227.451 43.1751C230.842 43.1301 234.224 43.9154 237.415 45.1908C240.606 46.4613 243.517 48.3819 246.198 50.5327C248.724 52.8585 251.07 55.4394 252.815 58.4004C254.556 61.3565 255.856 64.5726 256.326 67.9288C256.346 67.9688 256.321 68.0188 256.276 68.0388ZM279.835 68.2839C279.79 68.2989 279.74 68.2739 279.72 68.2389C275.108 56.9449 270.386 45.4109 262.514 35.9726C258.617 31.276 253.896 27.2245 248.524 24.3135C243.172 21.4025 237.07 19.6919 230.942 19.997C230.897 19.997 230.857 19.962 230.857 19.917C230.857 19.867 230.892 19.8319 230.937 19.8219C233.999 19.4318 237.15 19.5368 240.246 20.077C243.322 20.6973 246.323 21.7676 249.154 23.1381C254.826 25.9341 259.718 30.1206 263.829 34.8872C267.75 39.7939 270.991 45.1808 273.527 50.8278C274.783 53.6588 275.943 56.5198 277.014 59.4058L279.875 68.1839C279.895 68.2239 279.875 68.2639 279.835 68.2839Z" fill="#A438A8"/>
<path d="M185.051 203.811C197.396 181.864 214.127 162.247 234.569 147.507C244.632 139.984 255.656 133.512 267.73 129.655C273.767 127.765 280.03 126.569 286.392 126.294C292.744 126.154 299.131 126.879 305.233 128.895C305.669 129.04 305.904 129.505 305.759 129.94C305.624 130.356 305.193 130.586 304.773 130.486L304.683 130.466C298.721 128.97 292.504 128.455 286.442 128.905C280.42 129.39 274.383 130.671 268.646 132.661C257.152 136.678 246.398 142.8 236.584 150.268C231.573 153.869 226.726 157.725 222.149 161.837C217.538 165.938 213.306 170.445 209.035 174.931C204.813 179.468 200.827 184.239 197.086 189.206C193.204 194.083 189.703 199.25 186.207 204.462L186.172 204.517C185.967 204.822 185.552 204.907 185.247 204.702C184.971 204.497 184.881 204.111 185.051 203.811Z" fill="#A438A8"/>
<path d="M320.904 180.228C318.248 186.215 314.697 191.732 310.365 196.624C309.835 197.224 309.23 197.764 308.63 198.314L308.009 198.89C306.399 200.395 304.888 201.766 303.458 203.036C303.108 203.331 302.778 203.626 302.438 203.916C301.942 204.351 301.452 204.772 300.972 205.182L300.042 205.982C299.562 206.407 299.101 206.812 298.631 207.177C298.596 207.107 298.561 207.047 298.526 206.977C297.916 205.837 297.331 204.687 296.776 203.516C294.395 198.524 292.889 194.018 292.164 189.721C291.344 184.86 291.574 180.158 292.819 175.766C294.765 168.944 298.841 162.512 304.583 157.1C305.018 156.69 305.464 156.28 305.919 155.88C307.574 154.424 309.36 153.054 311.251 151.773C312.521 150.918 316.262 148.627 319.714 148.627C320.629 148.627 321.519 148.782 322.344 149.187C330.402 153.034 324.93 171.18 320.904 180.228Z" fill="#A438A8"/>
<path d="M271.492 215.71C267.855 220.432 260.928 221.898 255.296 222.648C243.687 224.183 233.053 223.788 223.685 221.452C218.838 220.252 214.257 218.491 210.01 216.206C206.374 214.255 201.397 211.579 199.682 208.258C199.191 207.318 199.126 206.417 199.456 205.372C200.607 201.781 206.089 197.249 214.502 192.942C216.883 191.722 219.323 190.712 221.814 189.891C224.3 189.081 226.841 188.481 229.407 188.081C231.893 187.696 234.399 187.506 236.91 187.506C247.463 187.506 257.942 190.887 266.49 197.204C269.656 199.53 271.632 201.666 272.732 203.921C274.528 207.593 274.013 212.439 271.492 215.71Z" fill="#A438A8"/>
<path d="M281.02 230.586C281.055 232.851 280.965 234.902 281.685 236.668C282.325 238.438 283.721 239.774 285.917 240.384C284.836 240.794 283.561 240.629 282.471 240.054C281.35 239.499 280.53 238.413 280.085 237.278C279.224 234.937 279.785 232.436 281.02 230.586Z" fill="#A438A8"/>
<path d="M291.619 228.545C293.509 229.715 295.06 231.756 295.245 234.252C295.31 235.467 295.015 236.793 294.225 237.763C293.474 238.738 292.379 239.419 291.229 239.494C292.974 238.023 293.689 236.233 293.539 234.357C293.459 232.446 292.529 230.621 291.619 228.545Z" fill="#A438A8"/>
<path d="M286.447 261.972C287.407 261.561 288.373 261.156 289.488 260.906C291.159 260.531 293.049 260.446 294.76 260.796C294.8 260.801 294.845 260.811 294.885 260.816C295.235 260.846 295.56 260.701 295.61 260.496C295.66 260.291 295.41 260.101 295.06 260.071C292.999 259.906 290.944 259.706 288.863 259.631C286.917 259.561 284.781 259.511 282.941 259.951C281.455 260.306 280.26 261.006 279.565 261.847C279.034 262.487 278.744 263.232 278.864 263.947C278.874 263.997 278.894 264.057 278.974 264.082C279.024 264.097 279.084 264.092 279.139 264.087C281.085 263.882 282.886 263.337 284.556 262.742C285.212 262.507 285.827 262.237 286.447 261.972Z" fill="#A438A8"/>
<path d="M286.352 83.9294C287.582 85.1498 288.368 86.7454 288.958 88.3609C289.578 89.9715 290.133 91.6071 290.638 93.2576C291.659 96.5538 292.429 99.94 293.204 103.281C294.11 106.572 295.665 109.768 295.685 113.395C295.68 115.155 295.045 117.171 293.474 118.301C292.004 119.522 290.113 119.907 288.398 120.157C281.65 121.062 275.008 123.198 268.291 124.689L258.227 127.034C256.551 127.435 254.871 127.905 253.025 128.13C251.235 128.365 248.989 128.305 247.163 126.949C245.443 125.549 244.687 123.623 244.202 121.868L242.972 116.801L240.576 106.737C239.761 103.466 238.93 99.7799 239.561 96.1436C240.041 92.4273 242.762 89.1812 246.033 87.7257C249.284 86.1351 252.8 85.705 256.206 85.1898L266.435 83.6693C269.856 83.2041 273.202 82.4138 276.613 81.8386C278.319 81.5836 280.065 81.4385 281.785 81.6736C283.491 81.9287 285.141 82.6889 286.352 83.9294ZM286.352 83.9294C285.121 82.7089 283.471 81.9887 281.77 81.7636C280.06 81.5585 278.334 81.7386 276.644 82.0187C273.267 82.6489 269.901 83.5042 266.495 84.0344L256.326 85.9851C252.97 86.6453 249.534 87.2555 246.623 88.8661C243.682 90.3866 241.596 93.1676 241.311 96.4037C240.896 99.6549 241.806 102.846 242.707 106.207L245.288 116.226C246.243 119.492 246.648 123.298 248.719 124.909C250.744 126.504 254.426 125.419 257.682 124.714L267.815 122.543L277.959 120.502C281.335 119.812 284.786 119.147 288.253 118.882C289.918 118.722 291.584 118.436 292.849 117.471C294.19 116.596 294.795 114.995 294.89 113.36C295.02 110.013 293.714 106.702 292.854 103.371C292.129 99.985 291.429 96.6238 290.468 93.3077C289.993 91.6521 289.468 90.0115 288.878 88.3909C288.308 86.7704 287.562 85.1748 286.352 83.9294Z" fill="#A438A8"/>
<path d="M158.297 197.794C161.158 189.746 164.134 181.729 167.335 173.781C170.676 165.893 174.273 158.1 178.204 150.448C186.112 135.177 195.785 120.682 207.409 107.758C213.346 101.395 219.864 95.5484 226.916 90.4166C234.009 85.3298 241.446 80.7232 249.774 77.6221C258.037 74.5311 266.925 72.8955 275.748 73.4857C284.556 74.1659 293.114 77.0869 300.312 81.9036L300.337 81.9186C300.657 82.1337 300.747 82.5689 300.527 82.894C300.317 83.2091 299.897 83.2991 299.577 83.1041C292.394 78.7175 284.081 76.2717 275.658 75.9566C267.225 75.5914 258.757 77.317 250.91 80.4481C235.249 86.9804 221.474 97.6541 209.92 110.073C198.431 122.648 188.968 136.948 180.865 151.903C172.747 166.873 165.945 182.519 159.558 198.314C159.417 198.664 159.017 198.835 158.667 198.689C158.327 198.554 158.157 198.169 158.277 197.829L158.297 197.794Z" fill="#A438A8"/>
<path d="M324.37 255.855C324.09 256.645 321.159 256.345 320.569 256.365C317.988 256.455 315.427 256.695 312.866 257.045C308.585 257.635 304.343 258.491 300.157 259.566C299.221 259.806 298.281 260.116 297.326 260.321C296.751 260.446 296.175 260.586 295.585 260.611C295.38 260.616 293.879 260.501 294.16 260.136C294.435 259.786 294.965 259.641 295.36 259.471C295.985 259.196 296.62 258.936 297.261 258.691C299.221 257.94 301.242 257.38 303.263 256.835C303.878 256.67 304.493 256.505 305.108 256.34C307.944 255.57 310.83 254.999 313.681 254.279C314.522 254.069 323.71 250.913 323.91 251.728C323.945 251.878 323.88 251.948 323.815 252.083C323.365 253.074 323.535 254.354 324.265 255.46C324.38 255.625 324.405 255.755 324.37 255.855Z" fill="#A438A8"/>
<path d="M326.016 254.799C325.976 254.899 325.921 254.994 325.861 255.084C325.446 255.704 324.695 256.005 323.97 256.165C323.94 256.17 323.91 256.175 323.885 256.165C323.865 256.155 323.85 256.14 323.835 256.125C322.81 255.004 322.405 253.239 323.155 251.868C323.2 251.788 323.25 251.703 323.325 251.653C323.435 251.578 323.58 251.588 323.71 251.603C324.52 251.698 325.321 252.098 325.781 252.773C326.181 253.359 326.291 254.154 326.016 254.799Z" fill="#A438A8"/>
<path d="M327.861 252.113C332.703 247.211 333.949 239.949 330.777 234.002C329.237 230.996 326.391 228.655 325.24 225.129C324.19 221.668 324.85 217.676 327.026 214.89C327.056 214.85 327.111 214.845 327.146 214.875C327.176 214.9 327.186 214.935 327.176 214.97C326.081 218.256 325.976 221.578 326.621 224.774C326.896 226.379 327.386 228.01 328.332 229.435C329.267 230.861 330.477 232.091 331.568 233.487C333.814 236.273 334.769 240.149 334.119 243.77C333.413 247.382 331.093 250.623 327.966 252.248C327.921 252.268 327.871 252.253 327.851 252.213C327.826 252.183 327.836 252.138 327.861 252.113Z" fill="#A438A8"/>
<path d="M326.471 250.022C326.896 248.217 327.181 246.581 327.246 244.911C327.391 243.255 327.331 241.584 327.081 239.854C326.946 238.994 326.661 238.138 326.156 237.423C325.661 236.708 324.9 236.208 324.21 235.552C323.58 234.847 322.95 234.267 322.59 233.272C322.259 232.336 322.214 231.161 322.825 230.356C322.855 230.316 322.91 230.306 322.95 230.336C322.975 230.351 322.985 230.381 322.985 230.406C323.03 232.251 324.325 233.232 325.361 234.712C325.796 235.447 326.211 236.308 326.626 237.133L327.966 239.554C328.882 241.204 329.227 243.175 329.062 245.076C328.817 246.971 328.001 248.827 326.616 250.112C326.581 250.147 326.521 250.142 326.491 250.107C326.471 250.082 326.461 250.047 326.471 250.022Z" fill="#A438A8"/>
<path d="M220.939 113.945C221.429 116.406 222.074 118.807 222.84 121.147C223.62 123.483 224.495 125.784 225.626 127.97C226.651 130.206 227.936 132.306 229.297 134.357C230.677 136.398 232.178 138.378 233.824 140.274C233.844 140.289 233.844 140.319 233.824 140.334C233.809 140.349 233.778 140.349 233.763 140.334C226.401 133.537 221.699 123.933 220.854 113.95C220.854 113.925 220.869 113.905 220.894 113.905C220.914 113.905 220.934 113.925 220.939 113.945Z" fill="#A438A8"/>
<path d="M204.233 133.137C205.554 134.447 206.829 135.777 208.05 137.153L211.671 141.294L215.162 145.551C216.317 146.981 217.423 148.457 218.498 149.972C218.513 149.987 218.513 150.017 218.498 150.032C218.483 150.047 218.453 150.042 218.438 150.032C213.321 144.741 208.55 139.109 204.163 133.192C204.148 133.172 204.153 133.147 204.173 133.132C204.188 133.112 204.218 133.122 204.233 133.137Z" fill="#A438A8"/>
<path d="M191.809 150.628C193.079 151.453 194.32 152.288 195.52 153.159L199.121 155.754L202.688 158.4C203.883 159.281 205.053 160.206 206.229 161.166C206.249 161.176 206.259 161.206 206.244 161.226C206.234 161.246 206.204 161.251 206.184 161.241C200.937 158.375 196.07 154.814 191.744 150.688C191.729 150.673 191.724 150.643 191.744 150.628C191.759 150.618 191.789 150.618 191.809 150.628Z" fill="#A438A8"/>
<path d="M183.161 168.279C184.346 168.664 185.497 169.119 186.602 169.649C187.712 170.17 188.763 170.79 189.843 171.36C190.863 172.03 191.924 172.64 192.914 173.361C193.92 174.061 194.87 174.846 195.785 175.696C195.805 175.706 195.815 175.736 195.8 175.756C195.79 175.776 195.76 175.776 195.74 175.771C191.509 173.341 187.302 170.865 183.116 168.349C183.096 168.339 183.091 168.309 183.101 168.289C183.111 168.279 183.141 168.274 183.161 168.279Z" fill="#A438A8"/>
<path d="M174.818 188.246C175.673 188.011 176.558 187.921 177.429 187.996C178.304 188.051 179.154 188.291 179.995 188.531C180.8 188.881 181.605 189.231 182.315 189.751C183.036 190.252 183.661 190.882 184.176 191.602C184.196 191.617 184.201 191.642 184.186 191.662C184.171 191.677 184.141 191.677 184.126 191.667C181.425 189.691 178.154 188.521 174.813 188.331C174.788 188.331 174.773 188.311 174.773 188.286C174.778 188.266 174.803 188.251 174.818 188.246Z" fill="#A438A8"/>
<path d="M297.126 158.871C295.935 160.896 294.705 162.672 293.584 164.563C292.414 166.418 291.394 168.324 290.123 170.305C290.103 167.939 290.929 165.668 292.124 163.672C293.364 161.697 295.01 159.931 297.126 158.871Z" fill="#A438A8"/>
<path d="M227.321 184.089C229.932 182.819 232.818 182.314 235.689 182.224C238.56 182.194 241.466 182.589 244.122 183.759C241.231 183.914 238.49 183.849 235.724 183.934C232.948 183.959 230.212 184.124 227.321 184.089Z" fill="#A438A8"/>
<path d="M265.84 223.603C269.831 223.043 273.137 220.562 274.808 216.901C274.393 221.032 269.916 224.373 265.84 223.603Z" fill="#A438A8"/>
<path d="M290.678 196.659C291.444 198.449 292.014 200.25 292.739 202.011C293.369 203.806 294.145 205.527 294.765 207.378C293.519 205.872 292.674 204.106 291.939 202.316C291.299 200.49 290.758 198.614 290.678 196.659Z" fill="#A438A8"/>
<path d="M269.236 89.2912C266.495 90.1565 264.299 92.4323 263.279 95.1183C260.563 94.5481 257.567 95.6385 255.846 97.8142C254.126 99.99 253.765 103.161 254.951 105.672C253.78 106.357 252.925 107.533 252.535 108.833C251.81 111.259 252.83 114.15 255.016 115.42C257.202 116.691 260.358 116.051 261.728 113.92C264.119 115.115 266.95 115.405 269.531 114.715C272.112 114.025 274.428 112.374 275.908 110.149C278.024 111.339 280.765 111.329 282.866 110.114C284.966 108.903 286.352 106.537 286.382 104.111C286.392 103.181 286.207 102.226 285.702 101.445C285.196 100.665 284.341 100.08 283.411 100.05C284.606 98.4094 285.487 96.4638 285.492 94.433C285.497 92.4023 284.491 90.3016 282.691 89.3613C281.65 88.8161 280.35 88.7611 279.254 89.1712C278.334 89.5163 277.589 90.6567 276.568 90.5017C275.468 90.3316 274.388 89.2912 273.187 89.0662C271.882 88.8211 270.511 88.8911 269.236 89.2912Z" fill="#A438A8"/>
<path d="M139.31 413.3H127.48V425.27H119.43V413.3H107.6V405.53H119.43V393.49H127.48V405.53H139.31V413.3ZM146.33 420.86L153.89 419.46V403.71C153.89 402.777 153.796 402.193 153.61 401.96C153.47 401.68 152.956 401.283 152.07 400.77L146.33 397.62L146.96 393L159.98 389.22L165.72 389.71V417.22C165.72 418.293 165.766 418.97 165.86 419.25C166 419.53 166.396 419.833 167.05 420.16L172.02 422.68L171.81 428H146.68L146.33 420.86ZM192.16 429.4C186.42 429.4 182.057 428.28 179.07 426.04C176.13 423.8 174.613 420.533 174.52 416.24C174.52 413.533 175.103 411.153 176.27 409.1C177.483 407 179.21 405.273 181.45 403.92C179.63 402.52 178.347 401.05 177.6 399.51C176.9 397.97 176.55 396.057 176.55 393.77C176.55 391.063 177.227 388.66 178.58 386.56C179.98 384.46 181.94 382.827 184.46 381.66C186.98 380.493 189.873 379.91 193.14 379.91C198.04 379.91 201.843 381.03 204.55 383.27C207.303 385.463 208.68 388.567 208.68 392.58C208.68 394.773 208.283 396.803 207.49 398.67C206.743 400.537 205.647 402.077 204.2 403.29C206.533 404.643 208.213 406.23 209.24 408.05C210.267 409.87 210.78 412.133 210.78 414.84C210.78 417.733 210.01 420.277 208.47 422.47C206.93 424.663 204.76 426.367 201.96 427.58C199.16 428.793 195.893 429.4 192.16 429.4ZM196.15 399.44C197.177 397.247 197.69 395.263 197.69 393.49C197.69 391.623 197.13 390.247 196.01 389.36C194.89 388.427 193.163 387.96 190.83 387.96C190.457 387.96 189.757 388.007 188.73 388.1C188.497 388.473 188.287 389.08 188.1 389.92C187.913 390.76 187.82 391.46 187.82 392.02C187.82 393.047 188.03 393.91 188.45 394.61C188.87 395.31 189.64 396.01 190.76 396.71C191.927 397.41 193.723 398.32 196.15 399.44ZM194.05 421.35C194.843 421.35 196.01 421.233 197.55 421C198.437 419.46 198.88 417.873 198.88 416.24C198.833 415.167 198.46 414.257 197.76 413.51C197.06 412.717 196.08 412.017 194.82 411.41C193.607 410.757 191.74 409.893 189.22 408.82L187.96 408.26C187.4 409.147 186.933 410.197 186.56 411.41C186.233 412.577 186.07 413.697 186.07 414.77C186.07 419.157 188.73 421.35 194.05 421.35ZM239.681 428.91C236.508 428.91 233.965 428.047 232.051 426.32C230.138 424.547 229.181 422.283 229.181 419.53C229.181 415.843 231.025 412.95 234.711 410.85C238.445 408.75 243.858 407.56 250.951 407.28C250.951 405.087 250.765 403.477 250.391 402.45C250.065 401.377 249.435 400.653 248.501 400.28C247.615 399.86 246.238 399.65 244.371 399.65C242.458 399.65 241.105 399.72 240.311 399.86L237.441 405.53L232.261 405.18C231.468 401.447 230.908 397.573 230.581 393.56C233.195 392.673 236.041 391.973 239.121 391.46C242.248 390.947 245.165 390.69 247.871 390.69C252.818 390.69 256.365 391.67 258.511 393.63C260.658 395.543 261.731 398.74 261.731 403.22V417.85C261.731 418.69 261.801 419.273 261.941 419.6C262.128 419.927 262.501 420.253 263.061 420.58L265.861 422.19L265.581 426.53C260.168 427.79 255.898 428.49 252.771 428.63C252.678 428.35 252.538 427.86 252.351 427.16C252.165 426.413 252.001 425.713 251.861 425.06C250.041 426.227 248.035 427.16 245.841 427.86C243.695 428.56 241.641 428.91 239.681 428.91ZM244.371 421C246.238 421 248.501 420.37 251.161 419.11L250.881 413.79C249.761 413.697 249.015 413.65 248.641 413.65C247.381 413.65 245.911 413.79 244.231 414.07C242.551 414.303 241.221 414.583 240.241 414.91C240.101 415.517 240.031 416.077 240.031 416.59C240.031 417.99 240.405 419.087 241.151 419.88C241.945 420.627 243.018 421 244.371 421ZM268.361 421.28L272.701 420.02V403.08C272.701 402.053 272.631 401.4 272.491 401.12C272.351 400.793 271.978 400.443 271.371 400.07L268.291 398.39L268.501 393.14L270.041 392.86C276.154 391.647 280.564 390.993 283.271 390.9C283.644 391.88 283.948 392.953 284.181 394.12C287.028 392.813 289.338 391.927 291.111 391.46C292.931 390.947 294.634 390.69 296.221 390.69C303.641 390.69 307.351 395.123 307.351 403.99V417.71C307.351 418.69 307.421 419.343 307.561 419.67C307.701 419.997 308.098 420.347 308.751 420.72L312.111 422.68L311.831 427.93H292.511L292.161 421.28L295.591 420.3V407.07C295.591 404.97 295.521 403.5 295.381 402.66C295.241 401.82 294.844 401.167 294.191 400.7C293.584 400.233 292.488 400 290.901 400C289.221 400 287.098 400.257 284.531 400.77V417.71C284.531 418.69 284.601 419.343 284.741 419.67C284.881 419.997 285.254 420.347 285.861 420.72L289.291 422.68L289.011 427.93H268.711L268.361 421.28ZM331.442 428.91C325.515 428.91 321.082 427.393 318.142 424.36C315.249 421.327 313.802 416.683 313.802 410.43C313.802 406.417 314.525 402.917 315.972 399.93C317.465 396.943 319.589 394.657 322.342 393.07C325.095 391.483 328.339 390.69 332.072 390.69C344.159 390.69 350.202 396.943 350.202 409.45C350.202 415.563 348.545 420.347 345.232 423.8C341.965 427.207 337.369 428.91 331.442 428.91ZM332.562 420.72C333.495 420.72 334.312 420.65 335.012 420.51C335.712 420.323 336.459 420.043 337.252 419.67C337.532 418.597 337.765 417.22 337.952 415.54C338.139 413.86 338.232 412.25 338.232 410.71C338.232 406.93 337.625 404.06 336.412 402.1C335.245 400.14 333.495 399.16 331.162 399.16C329.622 399.16 328.059 399.37 326.472 399.79C326.145 400.49 325.889 401.633 325.702 403.22C325.515 404.76 325.422 406.533 325.422 408.54C325.422 412.46 326.029 415.47 327.242 417.57C328.502 419.67 330.275 420.72 332.562 420.72ZM367.034 429.19C363.347 429.19 359.077 428.537 354.224 427.23C354.504 422.657 354.807 419.273 355.134 417.08L359.124 416.31L363.534 421C365.074 421.467 366.8 421.7 368.714 421.7C369.787 421.7 370.627 421.63 371.234 421.49C371.374 421.117 371.444 420.603 371.444 419.95C371.444 419.39 371.304 418.923 371.024 418.55C370.79 418.177 370.23 417.733 369.344 417.22C368.457 416.707 366.917 415.913 364.724 414.84C361.97 413.393 359.87 412.11 358.424 410.99C356.977 409.823 355.927 408.633 355.274 407.42C354.667 406.207 354.364 404.76 354.364 403.08C354.364 399.347 355.74 396.383 358.494 394.19C361.294 391.997 365.074 390.9 369.834 390.9C371.794 390.9 373.847 391.133 375.994 391.6C378.187 392.02 380.147 392.603 381.874 393.35C381.874 396.383 381.664 399.767 381.244 403.5L377.604 404.06L372.914 399.02C371.7 398.647 369.927 398.46 367.594 398.46C367.22 398.46 366.474 398.507 365.354 398.6C365.214 398.88 365.144 399.323 365.144 399.93C365.144 400.583 365.33 401.167 365.704 401.68C366.077 402.147 366.73 402.683 367.664 403.29C368.644 403.85 370.184 404.667 372.284 405.74C375.364 407.233 377.674 408.54 379.214 409.66C380.8 410.733 381.897 411.83 382.504 412.95C383.157 414.07 383.484 415.423 383.484 417.01C383.484 420.837 382.014 423.823 379.074 425.97C376.18 428.117 372.167 429.19 367.034 429.19Z" fill="white"/>
<rect x="2" y="480" width="223" height="87" fill="#A4D65E" stroke="white" stroke-width="3" stroke-linejoin="round"/>
<rect x="279" y="480" width="223" height="87" stroke="white" stroke-width="3" stroke-linejoin="round"/>
<path d="M63.57 547.84C58.4367 547.84 53.2333 547.047 47.96 545.46C48.1933 540.84 48.5667 536.547 49.08 532.58L54.47 531.53L57.97 537.48C60.77 538.46 63.2433 538.95 65.39 538.95C66.1367 538.95 67.7233 538.74 70.15 538.32C70.2433 537.387 70.29 536.757 70.29 536.43C70.29 535.31 70.1033 534.47 69.73 533.91C69.3567 533.303 68.54 532.65 67.28 531.95C66.02 531.203 63.7567 530.107 60.49 528.66C56.4767 526.7 53.5833 524.6 51.81 522.36C50.0367 520.073 49.15 517.39 49.15 514.31C49.15 509.503 50.7833 505.747 54.05 503.04C57.3167 500.333 61.7967 498.98 67.49 498.98C70.2433 498.98 72.9733 499.26 75.68 499.82C78.4333 500.333 80.8367 501.057 82.89 501.99C82.7967 504.603 82.5867 507.847 82.26 511.72L82.05 514.73L76.94 515.5L71.62 508.71C69.94 508.197 67.84 507.94 65.32 507.94C63.7333 507.94 62.5433 508.08 61.75 508.36C61.5167 509.293 61.4 510.017 61.4 510.53C61.4 511.557 61.6567 512.467 62.17 513.26C62.6833 514.007 63.5933 514.8 64.9 515.64C66.2067 516.433 68.1433 517.437 70.71 518.65C74.4433 520.423 77.2667 521.987 79.18 523.34C81.0933 524.693 82.4233 526.117 83.17 527.61C83.9633 529.057 84.36 530.83 84.36 532.93C84.36 537.55 82.5167 541.19 78.83 543.85C75.1433 546.51 70.0567 547.84 63.57 547.84ZM88.2302 539.86L93.3402 538.46V511.65C93.3402 510.437 93.2469 509.643 93.0602 509.27C92.8736 508.85 92.3836 508.477 91.5902 508.15L87.9502 506.05L88.3002 499.82H110.77L111.05 506.96L106.01 508.36V535.66C106.01 536.78 106.08 537.503 106.22 537.83C106.407 538.157 106.85 538.483 107.55 538.81L111.12 540.98L110.91 547H88.5802L88.2302 539.86ZM129.089 516.06L127.549 536.78V537.06C127.549 537.947 127.876 538.53 128.529 538.81L132.869 540.63L132.169 547H114.739L114.039 540.77L117.259 538.81L121.249 511.79C121.296 511.463 121.319 511.067 121.319 510.6C121.319 510.04 121.179 509.62 120.899 509.34C120.666 509.06 120.199 508.71 119.499 508.29L116.279 506.47L116.699 499.82H136.789L146.799 532.44L156.739 499.82H175.499L175.779 507.17L171.299 508.29L175.079 535.73C175.219 536.663 175.406 537.387 175.639 537.9C175.919 538.413 176.526 539.253 177.459 540.42L178.929 542.31L178.509 547H157.649L157.019 540.56L162.759 539.09L160.379 515.64L151.419 547.28L139.449 548.33L129.089 516.06Z" fill="white"/>
<path d="M330.35 525.18L331.54 543.52C331.587 544.593 331.703 545.293 331.89 545.62C332.077 545.947 332.497 546.297 333.15 546.67L336.79 549.12L336.51 555H318.31L317.96 547.37L321.74 546.46L322.02 518.88C322.02 517.993 321.95 517.387 321.81 517.06C321.67 516.733 321.343 516.36 320.83 515.94L318.24 513.98L318.73 507.82H333.22L354.36 534.91L353.38 519.3C353.333 518.18 353.217 517.457 353.03 517.13C352.843 516.803 352.423 516.453 351.77 516.08L348.13 513.7L348.34 507.82H366.4L366.68 514.96L363.11 516.5L362.83 554.37L354.78 557.03L330.35 525.18ZM367.022 548.77L369.192 547.44L385.572 507.75L397.472 506.7L411.472 544.5C411.939 545.713 412.266 546.507 412.452 546.88C412.639 547.253 412.989 547.767 413.502 548.42L414.762 550.03L414.342 555H394.672L393.972 548.35L398.942 547.09L396.702 540.02L382.492 540.23L380.952 544.64C380.812 545.06 380.742 545.41 380.742 545.69C380.742 546.017 380.789 546.273 380.882 546.46C381.022 546.6 381.232 546.717 381.512 546.81L386.342 548.84L385.642 555H367.302L367.022 548.77ZM389.912 518.67L385.292 532.11L394.322 532.53L389.912 518.67ZM397.472 501.66C396.026 501.66 393.856 501.147 390.962 500.12C390.029 499.793 389.096 499.513 388.162 499.28C387.229 499 386.459 498.86 385.852 498.86C385.572 499 385.246 499.257 384.872 499.63C384.546 499.957 384.172 500.423 383.752 501.03H379.902C380.649 497.717 381.629 495.29 382.842 493.75C384.102 492.21 385.689 491.44 387.602 491.44C388.536 491.44 389.492 491.58 390.472 491.86C391.499 492.093 392.712 492.467 394.112 492.98C394.346 493.073 395.046 493.307 396.212 493.68C397.379 494.053 398.406 494.24 399.292 494.24C399.526 494.1 399.806 493.843 400.132 493.47C400.459 493.097 400.856 492.63 401.322 492.07H405.172C404.426 495.383 403.422 497.81 402.162 499.35C400.949 500.89 399.386 501.66 397.472 501.66ZM439.491 555.98C431.744 555.98 425.958 554.02 422.131 550.1C418.351 546.18 416.461 540.23 416.461 532.25C416.461 527.07 417.418 522.59 419.331 518.81C421.244 514.983 423.974 512.043 427.521 509.99C431.068 507.937 435.291 506.91 440.191 506.91C455.778 506.91 463.571 514.867 463.571 530.78C463.571 536.007 462.614 540.51 460.701 544.29C458.788 548.07 456.011 550.963 452.371 552.97C448.778 554.977 444.484 555.98 439.491 555.98ZM440.961 546.32C443.621 546.32 446.164 545.643 448.591 544.29C449.104 542.843 449.501 541.047 449.781 538.9C450.061 536.707 450.201 534.56 450.201 532.46C450.201 527.28 449.221 523.36 447.261 520.7C445.348 518.04 442.524 516.71 438.791 516.71C436.131 516.71 433.564 517.2 431.091 518.18C430.578 519.067 430.181 520.537 429.901 522.59C429.621 524.597 429.481 526.907 429.481 529.52C429.481 534.933 430.461 539.087 432.421 541.98C434.381 544.873 437.228 546.32 440.961 546.32Z" fill="white"/>
</svg>
